# xmcd
#
# Track frame offsets: 
#        150
#        15877
#        42824
#        63824
#        77324
#        93224
#        113249
#        137624
#        153348
#
# Disc length: 2392 seconds
#
# Revision: 0
# Processed by: cddbd v1.5.2PL0 Copyright (c) Steve Scherf et al.
# Submitted via: ExactAudioCopy v0.95b2
#
DISCID=55095609
DTITLE=John Lee Hooker - Free Beer and Chicken
DYEAR=1974
DGENRE=Blues
TTITLE0=Make It Funky
TTITLE1=Five Long Years
TTITLE2=713 Blues
TTITLE3=714 Blues
TTITLE4=One Bourbon, One Scotch, One Beer
TTITLE5=Homework
TTITLE6=Bluebird
TTITLE7=Sitting on Top of the World
TTITLE8=Collage: I Know How To Rock/Nothin'..
EXTD=
EXTT0=
EXTT1=
EXTT2=
EXTT3=
EXTT4=
EXTT5=
EXTT6=
EXTT7=
EXTT8=
PLAYORDER=
